<svg xmlns="http://www.w3.org/2000/svg" width="1200" height="520" viewBox="0 0 1200 520"><rect width="1200" height="520" fill="#101012"/><style>text{font-family:-apple-system,BlinkMacSystemFont,"Segoe UI",sans-serif;fill:#f4f4f6}.muted{fill:#a9a9b2}.h{font-size:22px;font-weight:700}.s{font-size:13px}.xs{font-size:11px}.raw{fill:#efb25c;font-weight:700}.craft{fill:#8ab4ff;font-weight:700}.panel{fill:#18181c;stroke:#3a3a42;stroke-width:1}.well{fill:#25252b}.row{fill:#303037}.sel{fill:#355f8c}.line{stroke:#4b4b54;stroke-width:1}.good{fill:#72d39d}.bad{fill:#ed7b7b}</style><text x="40" y="45" class="h">System Settings Back — address history vs place continuity</text><rect x="40" y="80" rx="16" width="540" height="380" class="panel"/><rect x="620" y="80" rx="16" width="540" height="380" class="panel"/><text x="65" y="112" class="raw">RAW · “why the fuck did this reload? I was just here.”</text><text x="645" y="112" class="craft">CRAFT · preserve scroll, selection, disclosure, usable content</text><rect x="65" y="135" rx="10" width="490" height="210" class="well"/><text x="85" y="165" class="s">Full Disk Access</text><path d="M85 185 L105 195 L85 205" fill="none" class="line"/><text x="118" y="199" class="s">Back</text><rect x="85" y="225" width="450" height="95" rx="10" fill="#202026"/><circle cx="310" cy="272" r="19" fill="none" stroke="#777" stroke-width="4"/><path d="M310 253 A19 19 0 0 1 327 265" fill="none" stroke="#ddd" stroke-width="4"/><text x="337" y="278" class="s muted">rebuild parent → top of pane</text><rect x="645" y="135" rx="10" width="490" height="210" class="well"/><text x="665" y="165" class="s">Privacy &amp; Security</text><rect x="675" y="195" width="430" height="42" rx="8" class="row"/><text x="692" y="221" class="s muted">Camera</text><rect x="675" y="244" width="430" height="48" rx="8" class="sel"/><text x="692" y="274" class="s">Full Disk Access · selected</text><rect x="675" y="299" width="430" height="30" rx="8" fill="#243127"/><text x="692" y="319" class="xs good">refresh status locally · position preserved</text><text x="65" y="382" class="s">Route restored; working state reconstructed.</text><text x="645" y="382" class="s">Same parent object returns immediately.</text><text x="65" y="420" class="xs muted">Lever: continuity debt + latency</text><text x="645" y="420" class="xs muted">Lever: object identity + recovery</text></svg>